<?xml version="1.0"?>
<svg xmlns="http://www.w3.org/2000/svg" viewBox="0 0 24 24">
    <path d="M 5.21875 2 C 0.15575 6.747 2.00175 12.11 4.46875 12.5 C 4.74375 12.519 5.3655 12.5795 5.5625 12.5625 C 5.5625 12.5625 4.21075 9.20475 5.21875 5.84375 C 5.26575 8.16575 6.4705 11.59925 6.8125 12.15625 C 7.9855 12.14425 10.139 8.646 9.5 6.375 C 8.613 3.221 5.21875 2 5.21875 2 z M 14.875 9.21875 C 11.193096 9.3975586 8.283125 11.99375 7.71875 14.28125 C 7.75475 14.68625 7.808 15.094 7.875 15.375 C 7.875 15.375 12.09775 12.86825 16.84375 13.28125 C 13.73275 14.07525 7.78525 16.2665 5.90625 20.9375 L 8.53125 22 C 8.94525 20.917 9.06075 19.3565 10.09375 18.5625 C 10.85275 19.9425 13.74625 22.262 16.65625 20.625 C 20.69825 18.351 22 12.09375 22 12.09375 C 19.57825 9.8745 17.084143 9.1114648 14.875 9.21875 z"/>
</svg>
