<!DOCTYPE svg PUBLIC "-//W3C//DTD SVG 1.1//EN" "http://www.w3.org/Graphics/SVG/1.1/DTD/svg11.dtd">
<!-- Uploaded to: SVG Repo, www.svgrepo.com, Transformed by: SVG Repo Mixer Tools -->
<svg width="64px" height="64px" viewBox="-2.4 -2.4 28.80 28.80" fill="none" xmlns="http://www.w3.org/2000/svg">
<g id="SVGRepo_bgCarrier" stroke-width="0" transform="translate(0,0), scale(1)">
<path transform="translate(-2.4, -2.4), scale(1.7999999999999998)" fill="#9af99b" d="M9.166.33a2.25 2.25 0 00-2.332 0l-5.25 3.182A2.25 2.25 0 00.5 5.436v5.128a2.25 2.25 0 001.084 1.924l5.25 3.182a2.25 2.25 0 002.332 0l5.25-3.182a2.25 2.25 0 001.084-1.924V5.436a2.25 2.25 0 00-1.084-1.924L9.166.33z" strokewidth="0"/>
</g>
<g id="SVGRepo_tracerCarrier" stroke-linecap="round" stroke-linejoin="round" stroke="#CCCCCC" stroke-width="0.096"/>
<g id="SVGRepo_iconCarrier"> <path opacity="0.4" d="M16.1694 10.0601H7.82933C6.64933 10.0601 6.23934 9.27007 6.92934 8.31007L11.0994 2.47007C11.5894 1.77007 12.4093 1.77007 12.8993 2.47007L17.0694 8.31007C17.7594 9.27007 17.3494 10.0601 16.1694 10.0601Z" fill="#2b5025"/> <path d="M17.5896 18.0001H6.4096C4.8296 18.0001 4.2896 16.9501 5.2196 15.6701L9.20959 10.0601H14.7896L18.7796 15.6701C19.7096 16.9501 19.1696 18.0001 17.5896 18.0001Z" fill="#2b5025"/> <path d="M12.75 18V22C12.75 22.41 12.41 22.75 12 22.75C11.59 22.75 11.25 22.41 11.25 22V18H12.75Z" fill="#2b5025"/> </g>
</svg>